<mxfile host="65bd71144e">
    <diagram id="bU5f6vWJfylpR5oHXAnm" name="Страница 1">
        <mxGraphModel dx="1130" dy="787" grid="1" gridSize="10" guides="1" tooltips="1" connect="1" arrows="1" fold="1" page="1" pageScale="1" pageWidth="850" pageHeight="1100" math="0" shadow="0">
            <root>
                <mxCell id="0"/>
                <mxCell id="1" parent="0"/>
                <mxCell id="7" value="&lt;font style=&quot;font-size: 18px;&quot;&gt;Архитектура Аналитического решения&lt;/font&gt;" style="text;html=1;strokeColor=none;fillColor=none;align=center;verticalAlign=middle;whiteSpace=wrap;rounded=0;" vertex="1" parent="1">
                    <mxGeometry x="230" width="390" height="30" as="geometry"/>
                </mxCell>
                <mxCell id="12" value="" style="group" vertex="1" connectable="0" parent="1">
                    <mxGeometry x="10" y="90" width="230" height="550" as="geometry"/>
                </mxCell>
                <mxCell id="9" value="" style="rounded=0;whiteSpace=wrap;html=1;fontSize=18;" vertex="1" parent="12">
                    <mxGeometry width="230" height="550" as="geometry"/>
                </mxCell>
                <mxCell id="2" value="1c WMS" style="shape=cylinder3;whiteSpace=wrap;html=1;boundedLbl=1;backgroundOutline=1;size=15;" vertex="1" parent="12">
                    <mxGeometry x="85" y="50" width="60" height="80" as="geometry"/>
                </mxCell>
                <mxCell id="3" value="CH metrics" style="shape=cylinder3;whiteSpace=wrap;html=1;boundedLbl=1;backgroundOutline=1;size=15;" vertex="1" parent="12">
                    <mxGeometry x="85" y="170" width="60" height="80" as="geometry"/>
                </mxCell>
                <mxCell id="4" value="site backend&amp;nbsp;" style="shape=cylinder3;whiteSpace=wrap;html=1;boundedLbl=1;backgroundOutline=1;size=15;" vertex="1" parent="12">
                    <mxGeometry x="85" y="300" width="60" height="80" as="geometry"/>
                </mxCell>
                <mxCell id="5" value="site backend&amp;nbsp;" style="shape=cylinder3;whiteSpace=wrap;html=1;boundedLbl=1;backgroundOutline=1;size=15;" vertex="1" parent="12">
                    <mxGeometry x="85" y="420" width="60" height="80" as="geometry"/>
                </mxCell>
                <mxCell id="10" value="&lt;font style=&quot;font-size: 14px;&quot;&gt;Source layer&lt;/font&gt;" style="text;html=1;strokeColor=none;fillColor=none;align=center;verticalAlign=middle;whiteSpace=wrap;rounded=0;fontSize=18;" vertex="1" parent="12">
                    <mxGeometry x="60" width="110" height="30" as="geometry"/>
                </mxCell>
                <mxCell id="20" value="" style="group" vertex="1" connectable="0" parent="1">
                    <mxGeometry x="610" y="90" width="230" height="550" as="geometry"/>
                </mxCell>
                <mxCell id="21" value="" style="rounded=0;whiteSpace=wrap;html=1;fontSize=18;" vertex="1" parent="20">
                    <mxGeometry width="230" height="550" as="geometry"/>
                </mxCell>
                <mxCell id="26" value="&lt;font style=&quot;font-size: 14px;&quot;&gt;Business layer&lt;/font&gt;" style="text;html=1;strokeColor=none;fillColor=none;align=center;verticalAlign=middle;whiteSpace=wrap;rounded=0;fontSize=18;" vertex="1" parent="20">
                    <mxGeometry x="60" width="110" height="30" as="geometry"/>
                </mxCell>
                <mxCell id="63" value="BI Solution" style="shape=internalStorage;whiteSpace=wrap;html=1;backgroundOutline=1;fontSize=14;" vertex="1" parent="20">
                    <mxGeometry x="75" y="235" width="80" height="80" as="geometry"/>
                </mxCell>
                <mxCell id="13" value="" style="group" vertex="1" connectable="0" parent="1">
                    <mxGeometry x="310" y="90" width="230" height="310" as="geometry"/>
                </mxCell>
                <mxCell id="14" value="" style="rounded=0;whiteSpace=wrap;html=1;fontSize=18;" vertex="1" parent="13">
                    <mxGeometry width="230" height="310" as="geometry"/>
                </mxCell>
                <mxCell id="19" value="&lt;span style=&quot;font-size: 14px;&quot;&gt;Storage layer&lt;/span&gt;" style="text;html=1;strokeColor=none;fillColor=none;align=center;verticalAlign=middle;whiteSpace=wrap;rounded=0;fontSize=18;" vertex="1" parent="13">
                    <mxGeometry x="60" y="5.64" width="110" height="16.909090909090907" as="geometry"/>
                </mxCell>
                <mxCell id="35" value="Data Lake" style="shape=cube;whiteSpace=wrap;html=1;boundedLbl=1;backgroundOutline=1;darkOpacity=0.05;darkOpacity2=0.1;fontSize=12;" vertex="1" parent="13">
                    <mxGeometry x="75" y="190" width="80" height="80" as="geometry"/>
                </mxCell>
                <mxCell id="32" value="" style="group" vertex="1" connectable="0" parent="13">
                    <mxGeometry x="55" y="50" width="120" height="120" as="geometry"/>
                </mxCell>
                <mxCell id="30" value="" style="ellipse;shape=cloud;whiteSpace=wrap;html=1;fontSize=14;" vertex="1" parent="32">
                    <mxGeometry width="120" height="87.27272727272727" as="geometry"/>
                </mxCell>
                <mxCell id="31" value="&lt;font style=&quot;font-size: 12px;&quot;&gt;DWH Vertica&lt;/font&gt;" style="shape=datastore;whiteSpace=wrap;html=1;fontSize=14;" vertex="1" parent="32">
                    <mxGeometry x="30" y="54.54545454545454" width="60" height="65.45454545454544" as="geometry"/>
                </mxCell>
                <mxCell id="39" value="" style="group" vertex="1" connectable="0" parent="1">
                    <mxGeometry x="310" y="470" width="230" height="170" as="geometry"/>
                </mxCell>
                <mxCell id="40" value="" style="rounded=0;whiteSpace=wrap;html=1;fontSize=18;" vertex="1" parent="39">
                    <mxGeometry width="230" height="170" as="geometry"/>
                </mxCell>
                <mxCell id="53" value="&lt;span style=&quot;font-size: 14px;&quot;&gt;Data processing&lt;/span&gt;" style="text;html=1;strokeColor=none;fillColor=none;align=center;verticalAlign=middle;whiteSpace=wrap;rounded=0;fontSize=18;" vertex="1" parent="39">
                    <mxGeometry x="60" y="10" width="110" height="16.909090909090907" as="geometry"/>
                </mxCell>
                <mxCell id="56" value="Spark" style="shape=ext;double=1;whiteSpace=wrap;html=1;aspect=fixed;fontSize=12;" vertex="1" parent="39">
                    <mxGeometry x="20" y="50" width="80" height="80" as="geometry"/>
                </mxCell>
                <mxCell id="57" value="Airflow" style="shape=step;perimeter=stepPerimeter;whiteSpace=wrap;html=1;fixedSize=1;fontSize=12;" vertex="1" parent="39">
                    <mxGeometry x="115" y="50" width="100" height="80" as="geometry"/>
                </mxCell>
                <mxCell id="58" value="" style="shape=flexArrow;endArrow=classic;html=1;fontSize=12;" edge="1" parent="1">
                    <mxGeometry width="50" height="50" relative="1" as="geometry">
                        <mxPoint x="420" y="460" as="sourcePoint"/>
                        <mxPoint x="420" y="400" as="targetPoint"/>
                        <Array as="points"/>
                    </mxGeometry>
                </mxCell>
                <mxCell id="60" value="&lt;span style=&quot;font-size: 14px;&quot;&gt;Load and transfrom&lt;/span&gt;" style="text;html=1;strokeColor=none;fillColor=none;align=center;verticalAlign=middle;whiteSpace=wrap;rounded=0;fontSize=12;" vertex="1" parent="1">
                    <mxGeometry x="430" y="420" width="90" height="30" as="geometry"/>
                </mxCell>
                <mxCell id="61" value="" style="shape=flexArrow;endArrow=classic;html=1;fontSize=14;entryX=0;entryY=0.588;entryDx=0;entryDy=0;entryPerimeter=0;" edge="1" parent="1" target="40">
                    <mxGeometry width="50" height="50" relative="1" as="geometry">
                        <mxPoint x="250" y="570" as="sourcePoint"/>
                        <mxPoint x="290" y="520" as="targetPoint"/>
                    </mxGeometry>
                </mxCell>
                <mxCell id="62" value="&lt;font style=&quot;font-size: 14px;&quot;&gt;Extract&lt;/font&gt;" style="text;html=1;strokeColor=none;fillColor=none;align=center;verticalAlign=middle;whiteSpace=wrap;rounded=0;fontSize=12;" vertex="1" parent="1">
                    <mxGeometry x="240" y="530" width="60" height="30" as="geometry"/>
                </mxCell>
                <mxCell id="64" value="" style="shape=flexArrow;endArrow=classic;html=1;fontSize=14;entryX=0;entryY=0.588;entryDx=0;entryDy=0;entryPerimeter=0;" edge="1" parent="1">
                    <mxGeometry width="50" height="50" relative="1" as="geometry">
                        <mxPoint x="540" y="244.54000000000002" as="sourcePoint"/>
                        <mxPoint x="600" y="244.50000000000006" as="targetPoint"/>
                    </mxGeometry>
                </mxCell>
            </root>
        </mxGraphModel>
    </diagram>
</mxfile>